#!OML:ASF G:\JayActor3\Patient Classification 1\Patient 1\Session 6\male.ASF
:FULLY-SPECIFIED
:DEGREES
1555
root 7.95984 11.7686 -21.607 167.937 -54.8383 -173.518
lowerback 36.9696 -1.66521 1.38441
upperback 11.8724 -4.1609 -2.10895
thorax -5.34453 -2.89418 -1.35388
lowerneck -5.90281 -2.72026 -2.46262
upperneck -2.97682 -3.65687 8.94174
head 0.31378 -1.85812 3.21787
rclavicle 2.94201e-014 1.19271e-014
rhumerus 49.1399 9.11561 -60.7507
rradius 65.468
rwrist 0.308542
rhand -29.0325 -16.9177
rfingers 7.12502
rthumb -2.38314 -46.8842
lclavicle 2.94201e-014 1.19271e-014
lhumerus 77.615 -24.3811 46.7271
lradius 47.5526
lwrist 25.3824
lhand -35.7712 9.10446
lfingers 7.12502
lthumb -8.889 38.8972
rfemur -67.8115 2.29086 18.7027
rtibia 89.7201
rfoot -12.1871 -8.33886
rtoes -7.12217
lfemur -67.8907 12.452 -18.1478
ltibia 91.9158
lfoot -13.4719 2.50641
ltoes -3.26781
1556
root 7.90901 11.7535 -21.6942 168.454 -55.1354 -173.462
lowerback 37.3995 -1.60325 1.26942
upperback 11.9926 -4.15041 -1.95173
thorax -5.33651 -2.91014 -1.12072
lowerneck -5.56089 -2.7743 -2.31923
upperneck -3.76485 -3.7031 8.90757
head 0.00207063 -1.91779 3.18917
rclavicle -9.54166e-015 -3.49861e-014
rhumerus 48.2027 8.7078 -61.3391
rradius 67.7511
rwrist 1.36019
rhand -30.703 -16.3018
rfingers 7.12502
rthumb -3.99631 -46.2441
lclavicle -9.54166e-015 -3.49861e-014
lhumerus 77.73 -24.5852 46.4419
lradius 48.1176
lwrist 26.2751
lhand -37.0273 8.22091
lfingers 7.12502
lthumb -10.101 37.9585
rfemur -68.5045 2.36602 18.791
rtibia 90.5337
rfoot -12.735 -8.76264
rtoes -7.35671
lfemur -68.4714 12.4791 -18.0825
ltibia 92.4329
lfoot -14.0141 2.19047
ltoes -3.22745
1557
root 7.86424 11.7545 -21.7744 169.092 -55.4009 -173.625
lowerback 37.9484 -1.47492 1.13924
upperback 12.1544 -4.08305 -1.81379
thorax -5.31903 -2.90561 -0.917928
lowerneck -5.06527 -2.87661 -2.11141
upperneck -4.75503 -3.80757 8.81438
head -0.398948 -2.018 3.136
rclavicle 7.63333e-014 1.19271e-014
rhumerus 47.2403 7.83537 -62.328
rradius 70.7682
rwrist 2.00491
rhand -31.2512 -15.6476
rfingers 7.12502
rthumb -4.52567 -45.5793
lclavicle 7.63333e-014 1.19271e-014
lhumerus 77.5934 -24.7074 46.8115
lradius 49.8008
lwrist 26.5838
lhand -37.8027 7.07208
lfingers 7.12502
lthumb -10.849 36.7718
rfemur -69.0321 2.39726 18.7773
rtibia 91.1371
rfoot -13.174 -9.09235
rtoes -7.45407
lfemur -68.8529 12.5265 -18.1355
ltibia 92.7188
lfoot -14.431 1.88674
ltoes -3.13405
1558
root 7.82339 11.7686 -21.8468 169.866 -55.6498 -173.978
lowerback 38.563 -1.32927 1.02849
upperback 12.3292 -3.99939 -1.70548
thorax -5.30852 -2.89508 -0.760946
lowerneck -4.3441 -2.99565 -1.85682
upperneck -5.91106 -3.92704 8.67418
head -0.89306 -2.13629 3.07245
rclavicle -8.11041e-014 2.38542e-015
rhumerus 46.321 6.75335 -63.4115
rradius 74.2219
rwrist 2.07213
rhand -30.7514 -15.1351
rfingers 7.12502
rthumb -4.04311 -45.0765
lclavicle -8.11041e-014 2.38542e-015
lhumerus 77.1881 -24.7805 47.7648
lradius 52.4569
lwrist 26.234
lhand -37.6348 6.27452
lfingers 7.12502
lthumb -10.687 35.9827
rfemur -69.4524 2.36097 18.6639
rtibia 91.5601
rfoot -13.5154 -9.32419
rtoes -7.49031
lfemur -69.1162 12.5661 -18.3231
ltibia 92.823
lfoot -14.7291 1.6375
ltoes -2.97026
1559
root 7.785 11.7945 -21.9114 170.785 -55.8698 -174.491
lowerback 39.1845 -1.20026 0.965812
upperback 12.5026 -3.92628 -1.65098
thorax -5.30464 -2.88709 -0.681947
lowerneck -3.38382 -3.10892 -1.57249
upperneck -7.17426 -4.03044 8.53522
head -1.46815 -2.25487 3.02258
rclavicle -7.63333e-014 -2.46493e-014
rhumerus 45.504 5.70967 -64.3072
rradius 77.719
rwrist 1.72543
rhand -29.9048 -14.9709
rfingers 7.12502
rthumb -3.22551 -44.9263
lclavicle -7.63333e-014 -2.46493e-014
lhumerus 76.611 -24.8429 48.9693
lradius 55.7953
lwrist 25.4101
lhand -36.6986 6.23743
lfingers 7.12502
lthumb -9.78389 35.9901
rfemur -69.816 2.26348 18.4711
rtibia 91.8248
rfoot -13.7792 -9.47689
rtoes -7.44262
lfemur -69.3098 12.5936 -18.6282
ltibia 92.7747
lfoot -14.938 1.45291
ltoes -2.7682
1560
root 7.74827 11.8314 -21.9686 171.852 -56.0623 -175.121
lowerback 39.749 -1.13029 0.958283
upperback 12.6662 -3.90761 -1.66513
thorax -5.29893 -2.89917 -0.685626
lowerneck -2.19271 -3.18879 -1.29581
upperneck -8.49262 -4.07705 8.44058
head -2.11385 -2.35077 3.00928
rclavicle -6.36111e-014 -5.40694e-014
rhumerus 44.8304 4.91114 -64.8803
rradius 80.9387
rwrist 1.44237
rhand -29.4999 -14.955
rfingers 7.12502
rthumb -2.83448 -44.916
lclavicle -6.36111e-014 -5.40694e-014
lhumerus 75.9433 -24.8727 50.126
lradius 59.3899
lwrist 24.3535
lhand -35.078 7.09283
lfingers 7.12502
lthumb -8.22005 36.9129
rfemur -70.165 2.10343 18.2221
rtibia 91.9417
rfoot -13.9798 -9.58035
rtoes -7.3258
lfemur -69.4735 12.5913 -19.0248
ltibia 92.586
lfoot -15.0944 1.32048
ltoes -2.46743
1561
root 7.71294 11.8784 -22.0191 172.999 -56.2224 -175.763
lowerback 40.2031 -1.13882 1.02731
upperback 12.8246 -3.9542 -1.7349
thorax -5.27102 -2.93526 -0.766838
lowerneck -0.808459 -3.22804 -1.05477
upperneck -9.82656 -4.05453 8.40963
head -2.81876 -2.4155 3.04178
rclavicle 1.19271e-013 -5.725e-014
rhumerus 44.3311 4.41139 -65.1332
rradius 83.704
rwrist 1.6074
rhand -29.6895 -15.0764
rfingers 7.12502
rthumb -3.01762 -45.0348
lclavicle 1.19271e-013 -5.725e-014
lhumerus 75.2783 -24.8548 50.9955
lradius 62.809
lwrist 23.1763
lhand -33.8594 8.31067
lfingers 7.12502
lthumb -7.04384 38.1735
rfemur -70.5121 1.9008 17.976
rtibia 91.9119
rfoot -14.1424 -9.63782
rtoes -7.10583
lfemur -69.6377 12.5645 -19.4463
ltibia 92.2711
lfoot -15.2128 1.22978
ltoes -2.13426
1562
root 7.67972 11.9354 -22.0649 174.202 -56.3487 -176.363
lowerback 40.4891 -1.21403 1.15387
upperback 12.9936 -4.05566 -1.83969
thorax -5.18561 -2.9915 -0.900548
lowerneck 0.700046 -3.23916 -0.838517
upperneck -11.1574 -3.98118 8.41943
head -3.57064 -2.45669 3.10619
rclavicle -4.85035e-014 7.31528e-014
rhumerus 44.0213 4.17471 -65.1611
rradius 86.0709
rwrist 2.12608
rhand -30.1714 -15.3396
rfingers 7.12502
rthumb -3.48301 -45.2909
lclavicle -4.85035e-014 7.31528e-014
lhumerus 74.6663 -24.754 51.5342
lradius 65.8325
lwrist 22.1667
lhand -33.3401 9.31542
lfingers 7.12502
lthumb -6.54252 39.1944
rfemur -70.8738 1.68898 17.7582
rtibia 91.7386
rfoot -14.2816 -9.65376
rtoes -6.81131
lfemur -69.8345 12.5205 -19.8553
ltibia 91.8402
lfoot -15.2962 1.17152
ltoes -1.78452
1563
root 7.64942 12.0021 -22.1077 175.424 -56.4437 -176.879
lowerback 40.592 -1.32367 1.31403
upperback 13.186 -4.18039 -1.94402
thorax -5.02157 -3.0555 -1.0505
lowerneck 2.2647 -3.23931 -0.627597
upperneck -12.8403 -3.83149 8.6577
head -4.00747 -2.50429 2.92017
rclavicle 3.02153e-014 2.62396e-014
rhumerus 43.8863 4.09964 -65.0806
rradius 88.155
rwrist 2.86992
rhand -30.5481 -15.694
rfingers 7.12502
rthumb -3.84671 -45.639
lclavicle 3.02153e-014 2.62396e-014
lhumerus 74.1061 -24.5601 51.8364
lradius 68.4859
lwrist 21.6636
lhand -33.2968 9.69683
lfingers 7.12502
lthumb -6.50074 39.5771
rfemur -71.236 1.50263 17.5844
rtibia 91.4229
rfoot -14.4119 -9.6359
rtoes -6.46662
lfemur -70.0617 12.4634 -20.2155
ltibia 91.299
lfoot -15.3486 1.1303
ltoes -1.41673
1564
root 7.62266 12.0775 -22.1487 176.657 -56.5101 -177.307
lowerback 40.5186 -1.43394 1.46789
upperback 13.4015 -4.30057 -2.0139
thorax -4.77693 -3.11651 -1.17142
lowerneck 3.76501 -3.24073 -0.371429
upperneck -14.1898 -3.72701 8.58909
head -4.686 -2.53519 2.92178
rclavicle -1.74931e-014 7.4743e-014
rhumerus 43.9026 4.12879 -64.9531
rradius 90.0214
rwrist 3.63633
rhand -30.7875 -16.0509
rfingers 7.12502
rthumb -4.07796 -45.9916
lclavicle -1.74931e-014 7.4743e-014
lhumerus 73.5439 -24.2708 52.0363
lradius 70.8694
lwrist 21.3416
lhand -33.471 9.62916
lfingers 7.12502
lthumb -6.66888 39.5042
rfemur -71.5965 1.36995 17.4452
rtibia 90.9717
rfoot -14.5267 -9.59404
rtoes -6.18394
lfemur -70.322 12.3991 -20.5172
ltibia 90.6559
lfoot -15.3664 1.10109
ltoes -1.1286
1565
root 7.59948 12.1604 -22.1892 177.873 -56.5423 -177.642
lowerback 40.3078 -1.51311 1.5984
upperback 13.6346 -4.38457 -2.02865
thorax -4.46523 -3.1614 -1.24359
lowerneck 5.10431 -3.25578 -0.0399046
upperneck -15.417 -3.65442 8.37794
head -5.31053 -2.56868 2.86355
rclavicle -2.70347e-014 -8.74653e-015
rhumerus 44.027 4.20173 -64.8165
rradius 91.7111
rwrist 4.2995
rhand -30.8821 -16.3806
rfingers 7.12502
rthumb -4.16929 -46.3195
lclavicle -2.70347e-014 -8.74653e-015
lhumerus 72.9713 -23.922 52.1774
lradius 73.1282
lwrist 21.0362
lhand -33.7304 9.57374
lfingers 7.12502
lthumb -6.91932 39.4407
rfemur -71.9425 1.31791 17.3373
rtibia 90.3989
rfoot -14.6275 -9.53194
rtoes -5.94817
lfemur -70.5935 12.3414 -20.7447
ltibia 89.9181
lfoot -15.3585 1.0718
ltoes -0.937606
